<?xml version="1.0" encoding="UTF-8" standalone="no"?>
<svg
   xmlns:dc="http://purl.org/dc/elements/1.1/"
   xmlns:cc="http://creativecommons.org/ns#"
   xmlns:rdf="http://www.w3.org/1999/02/22-rdf-syntax-ns#"
   xmlns:svg="http://www.w3.org/2000/svg"
   xmlns="http://www.w3.org/2000/svg"
   xmlns:xlink="http://www.w3.org/1999/xlink"
   xmlns:sodipodi="http://sodipodi.sourceforge.net/DTD/sodipodi-0.dtd"
   xmlns:inkscape="http://www.inkscape.org/namespaces/inkscape"
   width="31.941505mm"
   height="31.941505mm"
   viewBox="0 0 31.941505 31.941505"
   version="1.1"
   id="svg978"
   inkscape:version="1.0.2 (e86c870879, 2021-01-15)"
   sodipodi:docname="logo.artist.network.svg">
  <defs
     id="defs972">
    <filter
       inkscape:collect="always"
       style="color-interpolation-filters:sRGB"
       id="filter1067"
       x="-0.12381336"
       width="1.2476267"
       y="-0.12381336"
       height="1.2476267">
      <feGaussianBlur
         inkscape:collect="always"
         stdDeviation="1.5712247"
         id="feGaussianBlur1069" />
    </filter>
    <linearGradient
       inkscape:collect="always"
       xlink:href="#linearGradient879"
       id="linearGradient966"
       x1="318.9707"
       y1="257.04605"
       x2="433.85938"
       y2="257.04605"
       gradientUnits="userSpaceOnUse" />
    <linearGradient
       inkscape:collect="always"
       id="linearGradient879">
      <stop
         style="stop-color:#ff00ff;stop-opacity:1"
         offset="0"
         id="stop875" />
      <stop
         style="stop-color:#ff0000;stop-opacity:1"
         offset="1"
         id="stop877" />
    </linearGradient>
  </defs>
  <sodipodi:namedview
     id="base"
     pagecolor="#ffffff"
     bordercolor="#666666"
     borderopacity="1.0"
     inkscape:pageopacity="0.0"
     inkscape:pageshadow="2"
     inkscape:zoom="0.35"
     inkscape:cx="66.735714"
     inkscape:cy="202.31904"
     inkscape:document-units="mm"
     inkscape:current-layer="layer1"
     inkscape:document-rotation="0"
     showgrid="false"
     fit-margin-top="0"
     fit-margin-left="0"
     fit-margin-right="0"
     fit-margin-bottom="0"
     inkscape:window-width="1530"
     inkscape:window-height="1205"
     inkscape:window-x="50"
     inkscape:window-y="77"
     inkscape:window-maximized="0" />
  <metadata
     id="metadata975">
    <rdf:RDF>
      <cc:Work
         rdf:about="">
        <dc:format>image/svg+xml</dc:format>
        <dc:type
           rdf:resource="http://purl.org/dc/dcmitype/StillImage" />
        <dc:title></dc:title>
      </cc:Work>
    </rdf:RDF>
  </metadata>
  <g
     inkscape:label="Layer 1"
     inkscape:groupmode="layer"
     id="layer1"
     transform="translate(-88.176176,-94.636421)">
    <g
       id="g984"
       transform="translate(-48.356663,24.12546)">
      <g
         id="g972"
         transform="matrix(0.84059871,0,0,0.84059871,68.789598,29.755254)">
        <rect
           style="opacity:0.269956;fill:#808080;fill-opacity:1;stroke:none;stroke-width:1;stroke-miterlimit:4;stroke-dasharray:none;stroke-opacity:0;filter:url(#filter1067)"
           id="rect1053"
           width="30.456642"
           height="30.456642"
           x="84.360214"
           y="52.255081"
           ry="5.0617161"
           rx="5.0617161" />
        <rect
           style="opacity:1;fill:#f9f9f9;fill-opacity:1;stroke:none;stroke-width:1;stroke-miterlimit:4;stroke-dasharray:none;stroke-opacity:0"
           id="rect968"
           width="30.456642"
           height="30.456642"
           x="84.360214"
           y="52.255081"
           ry="5.0617161"
           rx="5.0617161" />
        <path
           id="path937"
           style="color:#000000;font-style:normal;font-variant:normal;font-weight:normal;font-stretch:normal;font-size:medium;line-height:normal;font-family:sans-serif;font-variant-ligatures:normal;font-variant-position:normal;font-variant-caps:normal;font-variant-numeric:normal;font-variant-alternates:normal;font-variant-east-asian:normal;font-feature-settings:normal;font-variation-settings:normal;text-indent:0;text-align:start;text-decoration:none;text-decoration-line:none;text-decoration-style:solid;text-decoration-color:#000000;letter-spacing:normal;word-spacing:normal;text-transform:none;writing-mode:lr-tb;direction:ltr;text-orientation:mixed;dominant-baseline:auto;baseline-shift:baseline;text-anchor:start;white-space:normal;shape-padding:0;shape-margin:0;inline-size:0;clip-rule:nonzero;display:inline;overflow:visible;visibility:visible;isolation:auto;mix-blend-mode:normal;color-interpolation:sRGB;color-interpolation-filters:linearRGB;solid-color:#000000;solid-opacity:1;vector-effect:none;fill:url(#linearGradient966);fill-opacity:1;fill-rule:nonzero;stroke:none;stroke-width:3.77953;stroke-linecap:butt;stroke-linejoin:miter;stroke-miterlimit:4;stroke-dasharray:none;stroke-dashoffset:0;stroke-opacity:1;color-rendering:auto;image-rendering:auto;shape-rendering:auto;text-rendering:auto;enable-background:accumulate;stop-color:#000000"
           d="m 405.74609,219.26367 c -0.2948,-0.005 -0.58864,-8.1e-4 -0.88476,0.0137 -8.51218,0.4182 -14.81283,5.60585 -19.67383,12.65235 -1.3813,2.00233 -2.65715,4.17496 -3.87109,6.44531 H 318.9707 v 3.7793 h 60.42969 c -2.26629,4.69675 -4.32518,9.70954 -6.37109,14.68945 -1.63644,3.98323 -3.2749,7.92505 -4.98633,11.64844 h -46.125 c -0.9558,-1.82456 -1.93882,-3.67351 -2.94727,-5.51758 v 9.29687 h 0.6543 c 1.59483,3.01742 3.19909,5.99258 4.91406,8.72657 2.41243,3.84586 5.05295,7.27169 8.30469,9.78711 3.25174,2.5154 7.15972,4.07035 11.73633,4.04492 8.52221,-0.0473 14.88398,-4.98234 19.76172,-11.86914 2.26057,-3.19169 4.25251,-6.83118 6.10937,-10.68946 h 63.40821 v -3.77929 h -61.65235 c 1.48669,-3.33152 2.90266,-6.77256 4.31445,-10.20899 2.2946,-5.58522 4.58275,-11.14508 7.0879,-16.1289 h 45.67968 c 1.74532,2.41346 3.27306,4.71904 4.57032,6.76172 V 238.375 h -2.67774 c -0.42191,-0.56441 -0.82741,-1.12512 -1.26758,-1.69141 -3.39677,-4.37029 -7.31523,-8.74163 -11.52929,-12.03906 -3.95074,-3.09134 -8.21678,-5.30769 -12.63868,-5.38086 z m -0.70117,3.78516 c 3.35535,-0.16486 7.17803,1.58296 11.00586,4.57812 3.63405,2.84356 7.20578,6.75044 10.36524,10.74805 h -40.7754 c 0.85611,-1.50843 1.73248,-2.96058 2.6543,-4.29688 4.50335,-6.52804 9.64823,-10.68039 16.75,-11.02929 z m -81.13281,49.22265 h 42.32422 c -1.55975,3.11072 -3.19667,5.99643 -4.97266,8.50391 -4.49586,6.34763 -9.59473,10.23589 -16.70508,10.27539 -3.73816,0.0208 -6.69274,-1.15637 -9.40429,-3.2539 -2.71156,-2.09756 -5.1337,-5.16195 -7.41992,-8.80665 -1.30374,-2.07838 -2.56326,-4.36176 -3.82227,-6.71875 z"
           transform="scale(0.26458333)" />
      </g>
    </g>
  </g>
</svg>
